<svg width="22" height="30" viewBox="0 0 22 30" fill="none" xmlns="http://www.w3.org/2000/svg">
<path d="M14.1741 30V21.7002L10.6116 18.2954L9.13388 24.8259L0 22.9719L0.432203 20.8523L7.26207 22.2608L9.73043 9.70303L6.34822 11.0675V15.7795H4.21389V9.66997L9.86169 7.27985C10.5821 6.97908 11.113 6.78 11.4543 6.68258C11.7953 6.58494 12.109 6.53611 12.3955 6.53611C12.8297 6.53611 13.2329 6.65047 13.605 6.87918C13.977 7.10814 14.2799 7.41317 14.5135 7.79428L15.9364 10.0696C16.5437 11.0468 17.375 11.8689 18.4303 12.5361C19.4856 13.2033 20.6755 13.5643 22 13.619V15.7521C20.5534 15.7066 19.1552 15.3351 17.8053 14.6376C16.4552 13.9403 15.3041 12.9307 14.352 11.6089L13.293 16.9555L16.3084 19.8544V30H14.1741ZM14.5298 5.25093C13.802 5.25093 13.1822 4.9952 12.6705 4.48374C12.1587 3.97227 11.9028 3.35285 11.9028 2.62547C11.9028 1.89809 12.1587 1.27866 12.6705 0.767196C13.1822 0.255731 13.802 0 14.5298 0C15.2576 0 15.8774 0.255731 16.3892 0.767196C16.901 1.27866 17.1568 1.89809 17.1568 2.62547C17.1568 3.35285 16.901 3.97227 16.3892 4.48374C15.8774 4.9952 15.2576 5.25093 14.5298 5.25093Z" fill="black"/>
<path d="M5 10C4.30618 10 3.65613 9.86877 3.04985 9.60632C2.44348 9.34387 1.9148 8.98716 1.46382 8.53618C1.01284 8.0852 0.656127 7.55652 0.393676 6.95015C0.131225 6.34387 0 5.69382 0 5C0 4.30618 0.131225 3.65613 0.393676 3.04985C0.656127 2.44348 1.01284 1.9148 1.46382 1.46382C1.9148 1.01284 2.44348 0.656128 3.04985 0.393677C3.65613 0.131226 4.30618 0 5 0C5.69382 0 6.34387 0.131226 6.95015 0.393677C7.55652 0.656128 8.0852 1.01284 8.53618 1.46382C8.98716 1.9148 9.34387 2.44348 9.60632 3.04985C9.86877 3.65613 10 4.30618 10 5C10 5.69382 9.86877 6.34387 9.60632 6.95015C9.34387 7.55652 8.98716 8.0852 8.53618 8.53618C8.0852 8.98716 7.55652 9.34387 6.95015 9.60632C6.34387 9.86877 5.69382 10 5 10ZM6.74882 7.36882L7.36882 6.74882L5.44118 4.82132V2.05882H4.55882V5.17868L6.74882 7.36882ZM5 9.11765C6.14333 9.11765 7.11544 8.71721 7.91632 7.91632C8.71721 7.11544 9.11765 6.14333 9.11765 5C9.11765 3.85667 8.71721 2.88456 7.91632 2.08368C7.11544 1.28279 6.14333 0.882353 5 0.882353C3.85667 0.882353 2.88456 1.28279 2.08368 2.08368C1.28279 2.88456 0.882353 3.85667 0.882353 5C0.882353 6.14333 1.28279 7.11544 2.08368 7.91632C2.88456 8.71721 3.85667 9.11765 5 9.11765Z" fill="black"/>
</svg>
