<svg width="28" height="30" viewBox="0 0 28 30" fill="none" xmlns="http://www.w3.org/2000/svg">
<path d="M21.0959 30V25.3525H16.4932V23.0287H21.0959V18.3812H23.3973V23.0287H28V25.3525H23.3973V30H21.0959ZM2.77353 26.5144C1.99848 26.5144 1.34247 26.2433 0.80548 25.7011C0.268493 25.1589 0 24.4965 0 23.7139V6.07738C0 5.29479 0.268493 4.6324 0.80548 4.09019C1.34247 3.54798 1.99848 3.27687 2.77353 3.27687H4.8977V0H7.25814V3.27687H15.8146V0H18.116V3.27687H20.2402C21.0152 3.27687 21.6712 3.54798 22.2082 4.09019C22.7452 4.6324 23.0137 5.29479 23.0137 6.07738V15.2295C22.6301 15.1817 22.2466 15.1578 21.863 15.1578C21.4795 15.1578 21.0959 15.1817 20.7123 15.2295V12.274H2.30137V23.7139C2.30137 23.8332 2.35059 23.9424 2.44904 24.0415C2.54723 24.1409 2.6554 24.1906 2.77353 24.1906H13.2624C13.2624 24.5779 13.2861 24.9652 13.3334 25.3525C13.3804 25.7398 13.4668 26.1271 13.5927 26.5144H2.77353ZM2.30137 9.9503H20.7123V6.07738C20.7123 5.95809 20.6631 5.84888 20.5647 5.74973C20.4665 5.65033 20.3583 5.60062 20.2402 5.60062H2.77353C2.6554 5.60062 2.54723 5.65033 2.44904 5.74973C2.35059 5.84888 2.30137 5.95809 2.30137 6.07738V9.9503Z" fill="black"/>
</svg>
