<svg width="36" height="26" viewBox="0 0 36 26" fill="none" xmlns="http://www.w3.org/2000/svg">
<path d="M6.59329 26L4.81616 24.2225L21.412 7.62322H15.5999V10.9969H13.0702V5.09297H23.1857C23.4626 5.09297 23.7307 5.14484 23.9902 5.24858C24.2496 5.3526 24.4745 5.49964 24.6648 5.68969L29.8051 10.8054C30.5857 11.5862 31.5079 12.2009 32.5718 12.6496C33.6354 13.0983 34.7781 13.3313 36 13.3488V15.879C34.4195 15.879 32.9708 15.6064 31.6539 15.0613C30.3371 14.5165 29.163 13.7369 28.1317 12.7225L26.2184 10.7569L21.7459 15.214L25.4591 18.9284L15.2563 24.8255L13.9915 22.6133L21.3243 18.3899L17.7763 14.8408L6.59329 26ZM3.37296 14.3706V11.8403H10.9621V14.3706H3.37296ZM0 9.31005V6.7798H7.58916V9.31005H0ZM30.3145 5.93639C29.4951 5.93639 28.7913 5.64653 28.203 5.06683C27.615 4.4874 27.321 3.78792 27.321 2.9684C27.321 2.1486 27.615 1.44899 28.203 0.869562C28.7913 0.289854 29.4951 0 30.3145 0C31.1338 0 31.8376 0.289854 32.4259 0.869562C33.014 1.44899 33.308 2.1486 33.308 2.9684C33.308 3.78792 33.014 4.4874 32.4259 5.06683C31.8376 5.64653 31.1338 5.93639 30.3145 5.93639ZM3.37296 4.24955V1.71931H10.9621V4.24955H3.37296Z" fill="black"/>
</svg>
