<svg width="135" height="39" viewBox="0 0 135 39" fill="none" xmlns="http://www.w3.org/2000/svg">
<path d="M8.128 29.792C8.096 29.984 8.08 30.24 8.08 30.56C8.08 31.2 8.256 31.664 8.608 31.952C8.992 32.208 9.616 32.336 10.48 32.336H13.648L12.64 38H8.368C3.568 38 1.168 36 1.168 32C1.168 31.232 1.232 30.48 1.36 29.744L3.616 16.928H0.448L1.408 11.408H4.624L5.776 4.832H12.544L11.392 11.408H17.296L16.336 16.928H10.384L8.128 29.792ZM28.0814 16.112C29.2334 14.512 30.5774 13.264 32.1134 12.368C33.6494 11.472 35.3134 11.024 37.1054 11.024L35.8574 18.08H34.0814C32.0974 18.08 30.4974 18.512 29.2814 19.376C28.0974 20.24 27.2334 21.712 26.6894 23.792L24.1934 38H17.4254L22.1294 11.408H28.8974L28.0814 16.112ZM37.5036 24.608C37.9836 21.92 38.9276 19.536 40.3356 17.456C41.7756 15.376 43.5196 13.776 45.5676 12.656C47.6156 11.536 49.7756 10.976 52.0476 10.976C54.0316 10.976 55.6956 11.376 57.0396 12.176C58.4156 12.976 59.4236 13.984 60.0636 15.2L60.7356 11.408H67.5036L62.7996 38H56.0316L56.7516 34.112C55.6956 35.36 54.3196 36.4 52.6236 37.232C50.9596 38.032 49.1356 38.432 47.1516 38.432C45.1996 38.432 43.4716 38 41.9676 37.136C40.4636 36.24 39.2956 34.992 38.4636 33.392C37.6316 31.76 37.2156 29.872 37.2156 27.728C37.2156 26.736 37.3116 25.696 37.5036 24.608ZM58.3836 24.704C58.5116 23.872 58.5756 23.264 58.5756 22.88C58.5756 20.992 58.0156 19.52 56.8956 18.464C55.8076 17.408 54.4316 16.88 52.7676 16.88C51.5196 16.88 50.3036 17.184 49.1196 17.792C47.9676 18.4 46.9596 19.296 46.0956 20.48C45.2316 21.632 44.6556 23.008 44.3676 24.608C44.2716 25.216 44.2236 25.792 44.2236 26.336C44.2236 28.256 44.7676 29.776 45.8556 30.896C46.9436 31.984 48.3196 32.528 49.9836 32.528C51.2316 32.528 52.4476 32.224 53.6316 31.616C54.8156 30.976 55.8236 30.064 56.6556 28.88C57.5196 27.696 58.0956 26.304 58.3836 24.704ZM78.0509 8.24C76.9949 8.24 76.1469 7.936 75.5069 7.328C74.8669 6.72 74.5469 5.952 74.5469 5.024C74.5469 3.744 75.0269 2.656 75.9869 1.76C76.9789 0.831998 78.1309 0.367998 79.4429 0.367998C80.4669 0.367998 81.2989 0.671998 81.9389 1.28C82.5789 1.888 82.8989 2.656 82.8989 3.584C82.8989 4.864 82.4189 5.968 81.4589 6.896C80.4989 7.792 79.3629 8.24 78.0509 8.24ZM80.8349 11.408L76.1309 38H69.3629L74.0669 11.408H80.8349ZM102.21 11.024C104.962 11.024 107.122 11.776 108.69 13.28C110.29 14.752 111.09 16.864 111.09 19.616C111.09 20.64 111.01 21.568 110.85 22.4L108.066 38H101.394L103.986 23.312C104.082 22.736 104.13 22.176 104.13 21.632C104.13 20.032 103.698 18.816 102.834 17.984C102.002 17.152 100.802 16.736 99.2343 16.736C97.4423 16.736 95.9063 17.28 94.6263 18.368C93.3783 19.424 92.5463 20.96 92.1303 22.976L89.4903 38H82.7223L87.4263 11.408H94.1943L93.6183 14.672C94.7063 13.552 96.0023 12.672 97.5063 12.032C99.0103 11.36 100.578 11.024 102.21 11.024ZM125.113 16.112C126.265 14.512 127.609 13.264 129.145 12.368C130.681 11.472 132.345 11.024 134.137 11.024L132.889 18.08H131.113C129.129 18.08 127.529 18.512 126.313 19.376C125.129 20.24 124.265 21.712 123.721 23.792L121.225 38H114.457L119.161 11.408H125.929L125.113 16.112Z" fill="black"/>
</svg>
