<svg width="71" height="71" viewBox="0 0 71 71" fill="none" xmlns="http://www.w3.org/2000/svg">
<rect width="71" height="71" rx="8" fill="#DCC773"/>
<path d="M26.128 43.792C26.096 43.984 26.08 44.24 26.08 44.56C26.08 45.2 26.256 45.664 26.608 45.952C26.992 46.208 27.616 46.336 28.48 46.336H31.648L30.64 52H26.368C21.568 52 19.168 50 19.168 46C19.168 45.232 19.232 44.48 19.36 43.744L21.616 30.928H18.448L19.408 25.408H22.624L23.776 18.832H30.544L29.392 25.408H35.296L34.336 30.928H28.384L26.128 43.792ZM46.0814 30.112C47.2334 28.512 48.5774 27.264 50.1134 26.368C51.6494 25.472 53.3134 25.024 55.1054 25.024L53.8574 32.08H52.0814C50.0974 32.08 48.4974 32.512 47.2814 33.376C46.0974 34.24 45.2334 35.712 44.6894 37.792L42.1934 52H35.4254L40.1294 25.408H46.8974L46.0814 30.112Z" fill="black"/>
</svg>
